<svg width="19" height="18" viewBox="0 0 19 18" fill="none" xmlns="http://www.w3.org/2000/svg">
<path d="M14.7495 2.25H4.24951C3.42451 2.25 2.74951 2.925 2.74951 3.75V14.25C2.74951 15.075 3.42451 15.75 4.24951 15.75H14.7495C15.5745 15.75 16.2495 15.075 16.2495 14.25V3.75C16.2495 2.925 15.5745 2.25 14.7495 2.25ZM14.7495 14.25H4.24951V3.75H14.7495V14.25Z" fill="white"/>
<path d="M8.93701 5.79H5.18701V6.915H8.93701V5.79Z" fill="white"/>
<path d="M13.9995 11.8125H10.2495V12.9375H13.9995V11.8125Z" fill="white"/>
<path d="M13.9995 9.9375H10.2495V11.0625H13.9995V9.9375Z" fill="white"/>
<path d="M6.49951 13.5H7.62451V12H9.12451V10.875H7.62451V9.375H6.49951V10.875H4.99951V12H6.49951V13.5Z" fill="white"/>
<path d="M11.067 8.2125L12.1245 7.155L13.182 8.2125L13.977 7.4175L12.9195 6.3525L13.977 5.295L13.182 4.5L12.1245 5.5575L11.067 4.5L10.272 5.295L11.3295 6.3525L10.272 7.4175L11.067 8.2125Z" fill="white"/>
</svg>
