<svg width="19" height="18" viewBox="0 0 19 18" fill="none" xmlns="http://www.w3.org/2000/svg">
<path d="M9.39951 3C10.847 3 13.1495 4.05 13.1495 6.8625C13.1495 8.4825 11.8595 10.365 9.39951 12.3525C6.93951 10.365 5.64951 8.475 5.64951 6.8625C5.64951 4.05 7.95201 3 9.39951 3ZM9.39951 1.5C6.94701 1.5 4.14951 3.345 4.14951 6.8625C4.14951 9.2025 5.89701 11.67 9.39951 14.25C12.902 11.67 14.6495 9.2025 14.6495 6.8625C14.6495 3.345 11.852 1.5 9.39951 1.5Z" fill="white"/>
<path d="M9.39951 5.25C8.57451 5.25 7.89951 5.925 7.89951 6.75C7.89951 7.575 8.57451 8.25 9.39951 8.25C9.79733 8.25 10.1789 8.09196 10.4602 7.81066C10.7415 7.52936 10.8995 7.14782 10.8995 6.75C10.8995 6.35218 10.7415 5.97064 10.4602 5.68934C10.1789 5.40804 9.79733 5.25 9.39951 5.25ZM4.14951 15H14.6495V16.5H4.14951V15Z" fill="white"/>
</svg>
