<svg width="19" height="18" viewBox="0 0 19 18" fill="none" xmlns="http://www.w3.org/2000/svg">
<path d="M5.10451 3.75C5.14951 4.4175 5.26201 5.07 5.44201 5.6925L4.54201 6.5925C4.23451 5.6925 4.03951 4.74 3.97201 3.75H5.10451ZM12.4995 12.765C13.137 12.945 13.7895 13.0575 14.4495 13.1025V14.22C13.4595 14.1525 12.507 13.9575 11.5995 13.6575L12.4995 12.765ZM5.82451 2.25H3.19951C2.78701 2.25 2.44951 2.5875 2.44951 3C2.44951 10.0425 8.15701 15.75 15.1995 15.75C15.612 15.75 15.9495 15.4125 15.9495 15V12.3825C15.9495 11.97 15.612 11.6325 15.1995 11.6325C14.2695 11.6325 13.362 11.4825 12.522 11.205C12.447 11.175 12.3645 11.1675 12.2895 11.1675C12.0945 11.1675 11.907 11.2425 11.757 11.385L10.107 13.035C7.98451 11.9475 6.24451 10.215 5.16451 8.0925L6.81451 6.4425C7.02451 6.2325 7.08451 5.94 7.00201 5.6775C6.72451 4.8375 6.57451 3.9375 6.57451 3C6.57451 2.5875 6.23701 2.25 5.82451 2.25Z" fill="white"/>
</svg>
