<svg width="19" height="18" viewBox="0 0 19 18" fill="none" xmlns="http://www.w3.org/2000/svg">
<path d="M9.79953 1.5C5.65953 1.5 2.29953 4.86 2.29953 9C2.29953 13.14 5.65953 16.5 9.79953 16.5C13.9395 16.5 17.2995 13.14 17.2995 9C17.2995 4.86 13.9395 1.5 9.79953 1.5ZM9.79953 15C6.49203 15 3.79953 12.3075 3.79953 9C3.79953 5.6925 6.49203 3 9.79953 3C13.107 3 15.7995 5.6925 15.7995 9C15.7995 12.3075 13.107 15 9.79953 15ZM10.032 8.355C8.70453 8.0175 8.27703 7.65 8.27703 7.1025C8.27703 6.4725 8.86953 6.03 9.85203 6.03C10.887 6.03 11.277 6.525 11.307 7.26H12.5895C12.552 6.255 11.937 5.3325 10.722 5.0325V3.75H8.97453V5.0175C7.84203 5.2575 6.93453 5.9925 6.93453 7.125C6.93453 8.4675 8.05203 9.1425 9.67953 9.5325C11.142 9.8775 11.4345 10.395 11.4345 10.935C11.4345 11.3325 11.142 11.9775 9.85953 11.9775C8.65953 11.9775 8.18703 11.4375 8.11953 10.7475H6.82953C6.90453 12.0225 7.84953 12.7425 8.97453 12.975V14.25H10.7295V12.9975C11.8695 12.78 12.7695 12.1275 12.777 10.92C12.7695 9.27 11.352 8.7 10.032 8.355Z" fill="white"/>
</svg>
